# xmcd
#
# Track frame offsets:
#	150
#	14692
#	30235
#	45006
#	58672
#	72433
#	86814
#	103913
#	120059
#	138474
#	158530
#	176398
#	193991
#	207391
#	223127
#	225387
#
# Disc length: 3034 seconds
#
# Revision: 1
# Processed by: cddbd v1.5.2PL0 Copyright (c) Steve Scherf et al.
# Submitted via: audiograbber 1.83.01
#
DISCID=d60bd810
DTITLE=Various Artist - CDX Volume 598 (June 23, 2014)
DYEAR=2014
DGENRE=Country
TTITLE0=Joey Hyde - Get It On 
TTITLE1=Dolly Parton - Home
TTITLE2=Sam Hunt - Leave The Night On
TTITLE3=Craig Morgan - We'll Come Back Around (Alternate Lyrics Version)
TTITLE4=Craig Morgan - We'll Come Back Around (Album Version)
TTITLE5=Mary Sarah (with Merle Haggard) - Fightin' Side Of Me
TTITLE6=Debbie Cochran - Everything Changes
TTITLE7=Taria - Who's Cryin Now
TTITLE8=Steve Everett - 50 Shades Of Cowboy
TTITLE9=Jeremy Starkel - Burn 
TTITLE10=Madeline Smith - Catchin' Fireflies
TTITLE11=Gator Park - Hayseed Highway
TTITLE12=Cerrito - Manana (The Pajama Song)
TTITLE13=Gracia Harrison - Jezebel
TTITLE14=Jerry Cooper - Official White House Boys PSA 1
TTITLE15=Jerry Cooper - Official White House Boys PSA 2
EXTD=
EXTT0=
EXTT1=
EXTT2=
EXTT3=
EXTT4=
EXTT5=
EXTT6=
EXTT7=
EXTT8=
EXTT9=
EXTT10=
EXTT11=
EXTT12=
EXTT13=
EXTT14=
EXTT15=
PLAYORDER=
